<svg width="220" height="64" viewBox="0 0 220 64" fill="none" xmlns="http://www.w3.org/2000/svg">
<path d="M212.267 43.4297C212.788 41.4338 210.1 39.4352 204.312 38.5933C200.089 37.9823 191.726 37.1921 180.197 38.4956C148.899 42.0339 132.907 61.4881 132.907 61.4881C141.951 54.7617 148.803 47.3075 177.072 42.3788C183.203 41.317 188.064 41.1432 191.908 41.5126C191.908 41.5126 189.642 44.9016 202.348 46.0584C208.314 46.5988 211.872 44.9532 212.264 43.4297H212.267Z" fill="white"/>
<path d="M24.0162 16.4291C22.6389 15.924 20.8451 15.6198 19.0112 15.6198C16.4353 15.6198 15.0953 16.391 15.0953 17.8113C15.0953 19.2315 16.6195 20.0462 19.3128 20.0462C21.0639 20.0462 22.7483 19.6986 24.0162 19.0414L29.1734 29.8982C26.3653 31.6687 21.8114 32.8636 17.9648 32.8636C7.55169 32.8636 2.46924 25.594 2.46924 18.2756C2.46924 9.53973 8.92907 3.25867 17.9648 3.25867C21.9261 3.25867 26.5174 4.49152 29.1734 6.30279L24.0162 16.4318V16.4291Z" fill="white"/>
<path d="M38.6656 20.8201C38.6656 19.275 39.672 18.2322 41.1268 18.2322C42.5816 18.2322 43.6306 19.275 43.6306 20.8201C43.6306 22.3653 42.6189 23.3945 41.1268 23.3945C39.6346 23.3945 38.6656 22.3544 38.6656 20.8201ZM29.144 21.0482C29.144 28.2526 34.368 32.7495 41.1294 32.7495C48.2619 32.7495 53.1575 27.9729 53.1575 21.0482C53.1575 14.1236 48.2619 9.31165 41.1294 9.31165C33.9969 9.31165 29.144 14.0856 29.144 21.0482Z" fill="white"/>
<path d="M64.4942 20.8201C64.4942 19.275 65.5006 18.2322 66.9554 18.2322C68.4102 18.2322 69.4619 19.275 69.4619 20.8201C69.4619 22.3653 68.4556 23.3945 66.9554 23.3945C65.4552 23.3945 64.4942 22.3544 64.4942 20.8201ZM54.9727 21.0482C54.9727 28.2526 60.2019 32.7495 66.9554 32.7495C74.0879 32.7495 78.9808 27.9729 78.9808 21.0482C78.9808 14.1236 74.0906 9.31165 66.9554 9.31165C59.8202 9.31165 54.9727 14.0856 54.9727 21.0482Z" fill="white"/>
<path d="M92.4531 19.7366C92.9789 19.0442 93.6143 18.6613 94.3964 18.6613C95.7391 18.6613 96.6733 19.8534 96.6733 21.5479C96.6733 23.2424 95.7391 24.3585 94.3964 24.3585C93.7237 24.3585 93.0857 24.1684 92.4531 23.8235V19.7366ZM92.4531 9.76513H81.1777V38.7563H92.4531V31.5927C94.0227 32.2906 95.4801 32.6002 97.0097 32.6002C103.096 32.6002 107.503 27.628 107.503 20.7414C107.503 14.3137 103.392 9.57776 97.8719 9.57776C95.8912 9.57776 94.1374 10.2241 92.4531 11.4949V9.76513Z" fill="white"/>
<path d="M120.484 18.5798C120.409 16.4644 121.565 15.0007 123.057 15.0007C124.664 15.0007 125.71 16.3911 125.785 18.5798H120.484ZM132.653 23.7774C131.273 25.3225 128.994 26.2431 126.57 26.2431C124.146 26.2431 121.941 24.8147 121.154 22.5445H132.656C132.955 14.1154 127.696 9.31165 120.825 9.31165C113.955 9.31165 109.318 14.0367 109.318 20.8201C109.318 28.0136 114.355 32.7468 122.013 32.7468C126.57 32.7468 130.08 31.2071 132.656 27.7421V23.7746L132.653 23.7774Z" fill="white"/>
<path d="M150.186 18.4711C152.305 15.1392 153.699 13.4609 154.382 13.4609C155.159 13.4609 155.549 14.3299 155.549 16.0489C155.549 18.5662 154.991 21.3279 153.891 24.3503C152.783 27.3727 151.459 28.8825 149.916 28.8825C148.558 28.8825 147.183 27.9783 145.816 26.1697C146.614 24.372 148.072 21.8085 150.186 18.4711ZM144.255 35.5085C144.255 34.6069 144.428 33.1894 144.772 31.2614C146.134 32.1195 147.682 32.5567 149.414 32.5567C152.903 32.5567 155.904 30.6151 158.421 26.7345C160.933 22.8595 162.193 18.8567 162.193 14.7427C162.193 10.3951 160.62 8.22266 157.476 8.22266C154.331 8.22266 151.136 11.408 147.487 17.7732C148.408 13.9525 148.867 11.6035 148.867 10.7074C148.867 9.18124 147.962 8.41818 146.15 8.41818C144.973 8.41818 143.635 8.72232 142.138 9.3306C142.314 9.94974 142.399 10.4956 142.399 10.9708C142.399 12.3449 142.138 14.3299 141.62 16.9124L138.617 31.7447C138.617 31.7583 138.43 32.5132 138.046 34.0068C137.811 34.9138 137.693 35.6795 137.693 36.2851C137.693 37.7841 138.596 38.5254 140.403 38.5254C141.524 38.5254 142.856 38.2023 144.404 37.5641C144.308 36.6924 144.257 36.0136 144.257 35.5085H144.255Z" fill="white"/>
<path d="M167.788 3.40254C169.405 2.81055 170.911 2.51184 172.302 2.51184C174.119 2.51184 175.035 3.19073 175.035 4.54579C175.035 5.40661 174.845 6.51456 174.472 7.87776C173.914 9.90628 173.615 11.0006 173.583 11.169L171.143 22.949C170.671 25.2274 170.438 26.9789 170.438 28.1901C170.438 29.4989 170.788 30.6205 171.511 31.541C170.123 32.3937 168.786 32.8119 167.489 32.8119C165.15 32.8119 163.984 31.7583 163.984 29.6456C163.984 28.6517 164.283 26.6884 164.881 23.7664L167.353 11.742C167.988 8.6354 168.306 6.58245 168.306 5.58856C168.306 4.84993 168.129 4.11673 167.788 3.39982V3.40254Z" fill="white"/>
<path d="M191.806 8.90976C192.938 8.58389 194.113 8.41553 195.317 8.41553C197.367 8.41553 198.397 9.14058 198.397 10.5907C198.397 11.3456 198.25 12.2933 197.965 13.4366L197.233 16.2254C196.115 20.8364 195.557 24.459 195.557 27.0849C195.557 28.7658 195.858 30.2268 196.462 31.4895C195.389 32.3748 194.179 32.8147 192.826 32.8147C190.301 32.8147 189.041 31.4542 189.041 28.7305C189.041 27.2723 189.225 25.5208 189.588 23.4841C186.342 29.8385 183.083 33.0102 179.8 33.0102C177.28 33.0102 176.022 31.7719 176.022 29.2628C176.022 27.4135 176.522 24.3802 177.536 20.1657C178.548 15.9539 179.055 12.9152 179.055 11.0442C179.055 10.4115 178.927 9.81132 178.662 9.24105C180.251 8.6898 181.636 8.41824 182.808 8.41824C184.636 8.41824 185.549 9.1623 185.549 10.6559C185.549 11.1474 185.379 12.1222 185.048 13.5561C183.339 20.9315 182.488 25.4094 182.488 27.0062C182.488 27.6552 182.682 27.9702 183.08 27.9702C183.841 27.9702 185.536 25.6891 188.165 21.1297C190.792 16.5649 192.111 13.0292 192.111 10.5092C192.111 10.0693 192.012 9.54519 191.804 8.9179L191.806 8.90976Z" fill="white"/>
<path d="M201.349 25.8656C202.233 28.5811 203.752 29.9308 205.919 29.9308C208.087 29.9308 209.213 28.8038 209.213 26.5526C209.213 25.3741 207.446 23.5004 203.909 20.9287C202.671 19.7638 202.059 18.3544 202.059 16.7033C202.059 14.1073 202.991 12.0407 204.857 10.5146C206.725 8.98032 209.125 8.21997 212.051 8.21997C215.7 8.21997 217.531 8.89886 217.531 10.2539C217.531 11.4352 216.677 12.6436 214.974 13.8602C213.519 11.9403 212.126 10.9735 210.799 10.9735C208.928 10.9735 207.988 11.9593 207.988 13.9335C207.988 14.9681 208.623 15.9457 209.883 16.8717C211.05 17.7081 212.206 18.5472 213.377 19.3999C214.643 20.5947 215.275 22.0638 215.275 23.7828C215.275 26.6124 214.258 28.8581 212.219 30.52C210.169 32.182 207.548 33.0075 204.32 33.0075C200.194 33.0075 198.127 32.0543 198.127 30.1372C198.127 28.6898 199.201 27.2723 201.352 25.8629L201.349 25.8656Z" fill="white"/>
</svg>
